<?xml version="1.0" encoding="UTF-8"?>
<svg id="b" data-name="Layer 2" xmlns="http://www.w3.org/2000/svg" viewBox="0 0 800 175.71">
  <g id="c" data-name="Layer 1">
    <path d="M423.25,42.38c1.05-1.39,2.2-2.54,3.37-3.66,4.37-4.2,9.53-6.86,15.53-7.77,2.59-.39,5.17-.37,7.62,.91,2.64,1.38,4.38,3.52,5.61,6.14,1.37,2.92,2.09,6.01,2.4,9.2,.06,.63,.13,1.26,.44,1.92,.55-.15,.74-.65,1.03-1.02,2.54-3.23,5.17-6.37,8.38-8.98,2.04-1.66,4.22-3.07,6.7-3.98,2.78-1.03,7.35-.93,10.13,.1,5.27,1.94,9.29,5.38,11.99,10.43,1.99,3.7,3.11,7.66,3.75,11.78,.75,4.88,.82,9.81,.5,14.71-.4,6.03-1.4,11.98-2.59,17.91-1.37,6.77-3.26,13.41-5.5,19.94-3.3,9.63-6.52,19.3-9.63,28.99-2.7,8.41-5.05,16.93-6.75,25.6-.23,1.19-.29,1.22-1.4,1-4.87-1-9.75-1.97-14.61-3.01-3.66-.78-7.3-1.65-10.94-2.49-1.07-.25-1.13-.39-.7-1.55,2.1-5.68,4.17-11.37,6.31-17.04,4.52-12.02,9.06-24.03,13.62-36.03,2.18-5.75,4.27-11.52,5.47-17.58,.83-4.17,1.29-8.37,.98-12.62-.2-2.67-.94-5.17-2.55-7.39-2.61-3.6-7.9-4.28-11.26-1.45-1.69,1.42-3.12,3.06-4.34,4.89-3.2,4.8-5.53,10.04-7.68,15.37-4.18,10.39-8.51,20.72-13.07,30.96-4.09,9.19-8.2,18.38-12.43,27.51-.86,1.86-1.68,3.74-2.55,5.59-.85,1.81-.73,1.15-4.35,.2s-7.13-2.29-10.52-3.88c-2.94-1.38-3.37-1-2.54-2.65,2.8-5.51,5.4-11.12,8.16-16.65,3.92-7.86,7.63-15.83,11.23-23.85,3.66-8.16,7.22-16.36,10.51-24.68,1.95-4.94,3.12-10.09,3.79-15.34,.28-2.17,.13-4.36-.5-6.5s-2.35-3.59-4.5-3.84c-2.7-.31-4.9,.6-6.82,2.4-2.23,2.09-3.65,4.69-4.9,7.39-1.55,3.34-2.88,6.77-4.04,10.26-3.87,11.69-8.57,23.04-13.73,34.2-4.42,9.55-9.02,19.01-13.78,28.4-.88,1.74-1.13,1.99-2.34,1.08-.96-.73-2.28-2.17-2.88-3.22-.95-1.65-1.6-3.44-2.38-5.17-.28-.61-.13-1.13,.1-1.7,2.86-7.04,5.75-14.08,8.56-21.14,3.13-7.87,6.14-15.79,8.38-23.97,1.04-3.79,1.94-7.61,2.52-11.49,1.05-6.96,.07-14.11-2.97-20.45-1.02-2.14-2.16-4.22-3.35-6.26-.34-.59-.69-1.18-1-1.79-.42-.81-.31-1.01,.62-1.15,.86-.12,1.72-.17,2.59-.26,6.36-.68,12.63-1.91,18.88-3.24,1.16-.25,2.33-.46,3.48-.76,.72-.19,1.23-.02,1.71,.5,1.05,1.13,1.76,2.43,1.97,3.97,.05,.34-.01,.71,.27,1.18Zm-214.4-10.65c.28-2,.17-4.02,.3-6.03,.04-.6-.41-1.12-1.01-1.2-3.03-.38-6.06-.75-9.1-1.08-3.31-.35-6.63-.63-9.94-.98-1.24-.13-1.43-.03-1.46,1.26-.04,1.73-.16,3.45-.24,5.18-.24,5.36-.42,10.73-.55,16.1-.1,4.25-.05,8.5-.09,12.74-.14,12.71-.07,25.42,.51,38.11,.25,5.48,.31,10.96,.55,16.44,.22,5.04,.33,10.09,.59,15.14,.21,4.04,.27,8.09,.51,12.13,.12,1.88-.25,2.35,2.59,2.49,1.5,.07,3.01,.05,4.52,.13,4.19,.24,8.37,.53,12.56,.78,1.3,.08,1.61-.19,1.47-1.45-.31-2.86-.2-5.73-.35-8.59-.28-5.4-.36-10.82-.61-16.23-.2-4.36-.23-8.73-.35-13.1-.09-3.55-.2-7.1-.29-10.64-.01-.43-.15-.9,.17-1.29,.12,.04,.23,.04,.27,.09,.41,.54,.81,1.1,1.21,1.65,4.57,6.3,10.45,10.57,18.25,12.01,4.37,.81,8.62,.72,12.77-.99,4.32-1.78,7.64-4.76,10.27-8.54,5.18-7.42,7.6-15.8,8.28-24.69,.6-7.84-.61-15.47-3.49-22.82-2.02-5.14-4.96-9.91-8.99-13.69-6.21-5.82-13.68-8.77-22.38-8.51-4.84,.15-9.19,1.75-13.03,4.72-1,.78-1.91,1.65-2.84,2.74-.21-.75-.19-1.34-.11-1.9Zm23.99,46.89c-2.07,2.32-4.63,3.52-7.81,3.66-5.02,.22-8.82-1.89-11.77-5.75-2.93-3.83-4.33-8.27-5.01-12.98-.41-2.84-.31-5.63,.59-8.37,.99-3.01,2.62-5.58,5.07-7.63,3.89-3.25,10.32-3.26,14.54-.62,3.48,2.18,5.95,5.2,7.55,8.94,1.18,2.75,1.88,5.61,1.76,8.63-.06,5.25-1.33,10.09-4.92,14.11Zm320.5-16.83c-1-.79-1.98-1.61-2.99-2.39-.67-.51-.96-.38-1.1,.42-.03,.18-.03,.36-.04,.54-.16,3.4-.72,6.75-1.33,10.09-.81,4.41-1.83,8.78-2.99,13.12-1.07,3.99-2.09,8.01-3.1,12.01-.19,.76,.19,1.55,.91,1.85,.26,.11,.54,.18,.82,.28,1.95,.65,3.89,1.3,5.84,1.96,.78,.27,1.23,1.09,1.04,1.89-.9,3.81-1.82,7.61-2.73,11.42-1.31,5.49-2.65,10.97-3.9,16.48-1.99,8.79-3.76,17.63-5.2,26.52-.61,3.73-1.09,7.47-.6,11.27,.28,2.19,.83,4.29,1.71,6.3,.27,.62,.63,1.06,1.4,1.11,1.96,.12,3.91,.37,5.87,.45,6.75,.27,13.49,.72,20.25,.57,.68-.01,1.37,.02,2.05-.01,.97-.05,1.13-.29,.59-1.04-2.33-3.26-3.03-6.95-3.03-10.86,0-3.6,.37-7.17,.79-10.74,1.07-9.22,2.84-18.34,4.11-27.54,.62-4.51,1.32-9.01,1.46-13.56,.01-.36,.05-.73,.12-1.08,.09-.43,.35-.64,.8-.43,.37,.17,.74,.35,1.11,.54,2.15,1.13,4.38,2.04,6.67,2.83,.98,.34,1.35,.12,1.58-.86,.07-.31,.11-.63,.1-.95-.03-2.46,.22-4.91,.24-7.37,.03-3.51,.47-7,.35-10.5,0-.23,.03-.45,.04-.68,.17-4.05,.35-8.09,.49-12.14,.05-1.43,0-1.44-1.37-1.93-2.4-.87-4.75-1.88-7.1-2.89-1.11-.48-1.52-1.17-1.39-2.32,.12-.99,.16-2,.26-2.99,.25-2.49,.59-4.97,1.3-7.38,.32-1.1,.79-2.14,1.45-3.07,1.03-1.47,2.63-1.97,4.34-1.43,.53,.17,.97,.49,1.44,.76,.99,.58,1.62,.26,1.59-.85-.06-2.51,.29-5,.25-7.5-.06-4.33,.46-8.64,.33-12.96,0-.2,0-.39,.02-.59,.42-3.93,.02-7.89,.49-11.82,.1-.86-.32-1.33-1.11-1.64-1.28-.5-2.53-1.05-3.86-1.4-2.17-.58-4.35-1.03-6.62-.8-4.52,.47-7.94,2.74-10.53,6.38-2.95,4.12-4.49,8.82-5.65,13.67-.92,3.86-1.48,7.78-1.95,11.71-.32,2.71-.5,5.43-.76,8.15-.03,.3,.09,.65-.31,.95-.78-.38-1.45-.99-2.15-1.55ZM20.62,94.24c0-2.82,0-5.65,0-8.47,0-3.46,0-6.92,.01-10.38,0-1.16,.12-1.24,1.23-1.33,3.18-.25,6.36-.5,9.54-.77,5.81-.49,11.61-1.06,17.4-1.79,.69-.09,1.3,.41,1.33,1.1,0,.14,0,.27,0,.41,.09,6.42-.14,12.83,.19,19.25,.16,3.18,.04,6.37,.04,9.56,0,3,0,6.01,.04,9.01,.02,1.29,.31,1.53,1.56,1.46,.18-.01,.36-.04,.54-.06,3.58-.42,7.16-.83,10.73-1.26,1.95-.24,3.89-.5,5.83-.79,1.03-.15,1.1-.27,1.14-1.33,.01-.36,0-.73,0-1.09-.03-5.78-.05-11.55-.08-17.33-.03-4.96,.07-9.92-.15-14.88-.1-2.32,.09-4.64,.12-6.96,.12-9.19,0-18.39,.29-27.58,.16-4.96,.22-9.92,.33-14.88,.09-3.64,.21-7.28,.28-10.92,.04-1.72-.1-1.84-1.77-1.66-4.71,.51-9.42,1.09-14.14,1.56-.69,.07-1.38,.1-2.07,.14-1.5,.09-1.75,.44-1.86,1.92-.37,4.86-.27,9.73-.42,14.6-.19,6.05-.22,12.1-.33,18.15-.03,1.9-.09,1.99-1.96,2.17-.09,0-.18,.01-.27,.02-2.31,.25-4.63,.49-6.94,.75-3.4,.39-6.8,.69-10.22,.93-2.78,.2-5.55,.4-8.32,.65-1.75,.16-1.81,.17-1.79-1.57,.06-5.23-.04-10.47,.13-15.7,.19-5.96,.11-11.93,.15-17.89,0-.27,0-.55-.01-.82-.07-.91-.27-1.05-1.2-1.09-.48-.02-.88,.33-1.32,.28-2.05-.24-4.09,.05-6.14,.03-3.38-.04-6.76,.02-10.13,.07-1.43,.02-1.61,.21-1.62,1.56-.03,3.32-.12,6.64-.17,9.96-.17,11.29-.08,22.57-.29,33.86-.22,11.88-.06,23.76-.1,35.64,0,2.42-.13,6.37-.2,8.79-.05,2.03,0,4.06,.02,6.09,.01,1.09,.23,1.27,1.29,1.33,.41,.02,.82,0,1.23,0,1.99,0,3.97-.27,5.98-.22,3.4,.08,6.8,0,10.19-.24,1.66-.12,1.84-.19,1.88-1.76,0-.36,0-.73,0-1.09,0-5.83,0-11.65,0-17.48h0Zm626.02-13.88c.52-2.53,.43-5.07,.46-7.62,.03-2.22-.04-2.26-2.06-1.27-5.61,2.77-11.31,5.32-17.2,7.41-.81,.29-1.39,1-1.46,1.86-.36,4.09-.29,8.19-.39,12.28-.2,8.37-.32,16.74-.58,25.11-.19,6.05-.15,12.11-.24,18.16-.17,11.65-.1,23.31-.12,34.97,0,2.27,.11,2.33,2.18,1.32,6-2.92,11.67-6.41,17.46-9.7,.83-.47,1.34-1.34,1.34-2.29,.02-7.65,.1-15.29,.16-22.94,.04-5.65,.04-11.29,.12-16.94,.08-5.55,.95-10.96,3-16.15,1.83-4.65,4.48-8.75,8.24-12.08,1.23-1.09,2.51-2.2,4.08-2.71,3.37-1.09,5.35-.43,7.06,2.66,.33,.59,.59,1.21,.8,1.85,1.14,3.55,1.93,7.17,1.89,10.93-.04,3.09-.14,6.19-.18,9.28-.12,9.79-.09,19.58-.11,29.37,0,.32,0,.64,.05,.95,.13,.68,.44,.87,1.06,.6,.46-.2,.88-.49,1.3-.76,5.57-3.56,11.25-6.96,17.01-10.21,1.16-.65,1.56-1.4,1.56-2.68,.04-7-.2-14,.1-21,.18-4.11,.02-8.23,.12-12.34,.1-4-.25-7.99-.03-11.98v-.26c-.33-4.41-.87-8.8-1.91-13.1-1.04-4.29-2.46-8.43-5.04-12.09-.74-1.05-1.58-2.03-2.57-2.85-3.7-3.05-7.75-3.27-11.89-1.64-4.96,1.95-9.22,5.01-12.77,8.96-4.59,5.1-8.04,10.92-10.5,17.32-.11,.29-.15,.63-.61,.84-.63-1.09-.53-2.24-.32-3.26Zm55.65,15.67c.62,3.95,1.72,7.72,3.8,11.18,2.14,3.57,4.97,6.38,8.74,8.22,4.67,2.28,9.6,2.75,14.68,1.98,7.01-1.06,13.48-3.56,19.39-7.45,6.38-4.2,11.4-9.63,14.82-16.47,1.31-2.62,2.28-5.37,2.95-8.21,.21-.89-.01-1.17-.82-1.08-3.22,.37-6.44,.72-9.64,1.16-3.07,.43-6.12,1.02-9.2,1.42-1.32,.17-2.07,.69-2.65,1.94-2.14,4.6-5.69,7.64-10.68,8.82-1.88,.45-3.79,.43-5.62-.47-3.91-1.92-5.17-5.4-5.6-9.38-.05-.5,.25-.97,.72-1.14,.36-.13,.71-.25,1.07-.37,5.33-1.92,10.81-3.35,16.31-4.68,8.62-2.09,17.37-3.37,26.2-4.11,1.38-.12,1.29-.2,1.49-1.91,.34-2.89,.38-5.81,.02-8.7-.89-6.96-2.6-13.62-6.02-19.73-2.42-4.31-5.48-8.07-9.75-10.7-6.41-3.95-13.31-4.72-20.56-2.98-5.35,1.28-9.82,4.11-13.66,7.95-3.32,3.32-5.88,7.21-7.95,11.39-5.72,11.5-8.18,23.78-8.59,36.52-.07,2.29,.19,4.55,.54,6.8Zm20.99-27.04c.99-4.49,2.84-8.54,6.23-11.75,2.38-2.25,5.22-3.41,8.53-3.42,2.33-.01,4.27,.87,5.9,2.44,2.2,2.12,3.2,4.81,3.54,7.78,.14,1.25-.05,1.46-1.37,1.69-5.58,.95-11.06,2.27-16.48,3.87-1.79,.53-3.56,1.13-5.34,1.69-.42,.13-.82,.39-1.33,.24-.12-.88,.15-1.71,.33-2.54Zm-643.94,1.25c.5,5.99,1.82,11.78,4.2,17.31,2.03,4.72,4.64,9.06,8.66,12.45,5.87,4.95,13.89,6.4,21.32,4.45,6.9-1.81,12.57-5.72,17.2-11.3,4.47-5.38,7.43-11.54,9.1-18.32,.2-.79,.4-1.59,.52-2.4,.07-.5-.27-.91-.77-.89-.74,.02-1.48,.18-2.22,.25-5.27,.5-10.5,1.33-15.74,2.07-1.4,.2-2.13,.75-2.65,2.09-1.2,3.11-3.18,5.67-6.38,6.96-3.94,1.58-7.36,1.2-10.11-1.67-2.57-2.68-3.61-6.05-3.9-9.69-.04-.52,.19-.77,.65-.87,.27-.06,.54-.1,.81-.14,7.59-1.33,15.19-2.66,22.82-3.79,3.97-.59,7.95-1.13,11.92-1.68,1.9-.26,3.8-.49,5.7-.72,.67-.08,1.15-.39,1.17-1.1,.07-2.32,.55-4.62,.27-6.95-.24-2.08-.39-4.17-.77-6.23-.96-5.18-2.35-10.2-5.07-14.78-2.69-4.52-6.28-8.01-11.27-9.94-4.4-1.7-8.96-1.79-13.49-.95-9.4,1.74-17.11,6.37-22.89,14.03-6.13,8.12-9.11,17.33-9.31,27.46,.06,1.47,.12,2.92,.24,4.37Zm38.5-25.79c1.94,1.68,3.49,3.61,3.88,6.24,.05,.31,.11,.63,.12,.95,.04,.77-.53,1.43-1.29,1.56-2.59,.44-5.19,.84-7.77,1.28-4,.68-8,1.38-12,2.07-.22,.04-.44,.11-.67,.14-1,.13-1.21-.07-.92-1,1.04-3.22,2.31-6.32,4.47-9,2.23-2.77,5.16-4.09,8.56-4.33,2.17,.09,4.03,.72,5.62,2.09Zm34.37,43.19c.16,3.41,.08,6.82,.31,10.23,.1,1.41,.23,1.6,1.61,1.57,1.64-.03,3.28-.18,4.92-.19,4.02-.04,8.03-.03,12.05-.04,2.14,0,2.21-.03,2.03-2.12-.35-3.99-.36-8.01-.4-12-.13-11.97-.06-23.94-.06-35.92,0-.36,.01-.73,.03-1.09,.17-5.18,.34-10.37,.52-15.55,.09-2.59,.17-5.18,.31-7.77,.23-4.41,.49-8.81,.76-13.21,.2-3.22,.42-6.44,.65-9.66,.1-1.39-.02-1.56-1.45-1.64-.5-.02-1-.03-1.51-.03-2.24-.03-4.48,0-6.71-.12-3.33-.19-6.66-.1-9.98,.08-.76,.04-1.04,.42-1.07,1.12-.02,.77-.03,1.55-.1,2.32-.5,5.53-.77,11.07-1.09,16.61-.15,2.55-.1,5.1-.3,7.64-.43,5.63-.51,11.27-.66,16.91-.18,6.6-.04,13.2-.04,19.8,.08,7.69-.19,15.38,.18,23.07Zm456.79,88.03c1.95,0,2-.04,1.91-2.01-.25-5.36-.51-10.72-.51-16.09,0-9.51,.05-19.02,.5-28.52,.18-3.77,.16-7.55,.36-11.32,.12-2.32,.18-4.64,.28-6.95,.15-3.77,.31-7.54,.51-11.31,.17-3.26,.19-6.53,.39-9.79,.11-1.7,.21-4.5,.15-6.2-.03-.77-.22-.82-1.21-.77-.96,.06-1.91,.24-2.86,.25-4.79,.03-9.58,.12-14.33-.74-1.19-.22-1.35-.08-1.38,1.17-.05,2.28-.16,4.55-.29,6.82-.26,4.59-.39,9.18-.66,13.77-.09,1.51-.12,3.02-.24,4.53-.29,3.71-.6,9.79-.78,13.51-.28,5.66-.67,11.32-.73,16.99-.07,7.28-.56,14.54-.2,21.83,.22,4.36,.29,8.73,.4,13.1,.04,1.63,.14,1.75,1.84,1.75,2.83,.01,5.66,0,8.49,0,2.78,0,5.57,0,8.35,0ZM351.31,58.55c-.26-4.42-.83-8.79-1.62-13.13-1.42-7.79-3.43-15.46-5.15-23.19-.24-1.08-.74-1.62-1.83-1.88-4.04-.95-8.1-1.81-12.18-2.59q-1.95-.37-1.61,1.49s.01,.09,.02,.14c1.12,5.77,1.83,11.59,2.27,17.45,.41,5.45,.63,10.9,.74,16.36,.15,7.37-.21,14.74-.33,22.11-.08,4.66-.25,9.31-.51,13.96-.15,2.58-.1,5.16-.29,7.73-.36,4.86-.15,9.74-.24,14.6-.02,1,.19,1.15,1.22,1.22,.23,.02,.46,0,.68,0,5.52,0,11.05,0,16.57,0,.36,0,.73,0,1.09-.04,.53-.05,.82-.32,.85-.88,.05-.86,.16-1.72,.18-2.59,.21-10.7,0-21.39,.24-32.09,.05-2.18,.09-4.36,.04-6.15,0-4.45,.1-8.49-.14-12.54Zm-78.73,27.53c-.85,5.11-1.71,10.22-2.53,15.34-1.11,6.91-2.19,13.83-3.28,20.74-.39,2.47-.77,4.94-1.13,7.41-.16,1.09-.04,1.2,.98,1.35,3.66,.53,7.36,.61,11.03,1.01,1.75,.19,1.83,.03,2.4-1.69,.09-.26,.17-.52,.26-.78,4.33-13.61,8.96-27.13,13.62-40.63,.72-2.1,.52-2.43-1.7-2.57-.09,0-.18,0-.27-.01-3.45-.32-6.9-.63-10.35-.96-2.31-.22-4.63-.45-6.82-.67-1.75-.07-1.97,.08-2.2,1.45Zm320.46-34.18c.35,3.38,1.06,6.72,2.28,9.89,.83,2.19,1.93,4.25,3.73,5.85,2.59,2.31,6.11,2.38,8.72,.14,1.22-1.04,2.25-2.25,3.07-3.64,2.55-4.34,3.59-9.18,4.46-14.08,.34-1.91,.49-3.86,.4-5.8-.12-2.52-.38-5.03-.95-7.49-.78-3.4-1.97-6.65-4.26-9.35-2.84-3.34-6.95-4.58-10.76-1.68-1.31,.99-2.39,2.24-3.21,3.68-2.78,4.86-3.96,10.13-4.04,15.67-.11,2.3,.33,4.55,.57,6.82Zm202.46,35.95c-3.19-3.13-8.04-4.11-12.1-2.22-4.36,2.03-6.42,5.62-7.39,9.92-.3,1.34-.41,2.69-.15,4.06,.85,4.52,3.45,7.77,7.4,9.96,3.09,1.71,6.27,1.76,9.39-.05,2.38-1.38,4.25-3.27,5.6-5.66,1.07-1.89,1.8-3.88,1.75-6.11-.18-3.9-1.73-7.19-4.5-9.9ZM374.82,28.11c0-1.49-.02-1.54-1.47-1.72-3.71-.45-7.42-.87-11.08-1.62-1.16-.24-2.32-.49-3.48-.7-.57-.1-.98,.3-.94,.87,.04,.63,.12,1.27,.21,1.9,1.18,8.37,2.56,16.71,3.58,25.1,.32,2.65,.13,2.29,2.49,2.6,2.1,.28,4.2,.55,6.3,.78,3.32,.35,3.58,.44,3.77-2.14,.14-1.99,.17-3.99,.26-5.99,.22-4.54,.26-9.09,.36-13.22,0-2.23,0-4.05,0-5.86Z"/>
  </g>
</svg>